<!DOCTYPE svg PUBLIC "-//W3C//DTD SVG 20010904//EN" "http://www.w3.org/TR/2001/REC-SVG-20010904/DTD/svg10.dtd">
<svg version="1.0" xmlns="http://www.w3.org/2000/svg" width="256px" height="256px" viewBox="0 0 2560 2560" preserveAspectRatio="xMidYMid meet">
<g id="layer1" fill="#3692cc" stroke="none">
 <path d="M1290 1950 c0 -5 7 -10 15 -10 8 0 15 5 15 10 0 6 -7 10 -15 10 -8 0 -15 -4 -15 -10z"/>
 <path d="M1300 1910 c0 -5 7 -10 15 -10 8 0 15 5 15 10 0 6 -7 10 -15 10 -8 0 -15 -4 -15 -10z"/>
 <path d="M1950 1232 c0 -14 89 -96 97 -89 4 4 -13 28 -37 52 -42 43 -60 54 -60 37z"/>
 <path d="M2250 1020 c0 -5 7 -10 15 -10 8 0 15 5 15 10 0 6 -7 10 -15 10 -8 0 -15 -4 -15 -10z"/>
 <path d="M2243 185 c-3 -9 -2 -19 1 -23 8 -8 38 10 44 26 6 18 -38 14 -45 -3z"/>
 <path d="M308 183 c-35 -5 -42 -29 -18 -63 27 -38 66 -52 136 -48 44 2 59 7 59 18 0 12 -14 15 -63 16 -51 0 -67 4 -85 22 l-21 22 84 1 c47 0 104 0 128 -1 31 -1 42 2 42 13 0 9 -12 18 -27 20 -32 6 -194 5 -235 0z"/>
 <path d="M2210 110 c0 -33 11 -38 30 -15 10 12 10 18 0 30 -19 23 -30 18 -30 -15z"/>
 </g>
<g id="layer2" fill="#b3bcc5" stroke="none">
 <path d="M2224 1496 c-7 -17 64 -85 89 -86 27 0 20 23 -21 63 -40 39 -59 46 -68 23z"/>
 <path d="M2190 1443 c0 -4 14 -22 32 -40 l32 -33 -24 -25 c-35 -37 -14 -44 22 -7 l32 32 -39 40 c-37 38 -55 49 -55 33z"/>
 <path d="M1982 1258 c-19 -19 -13 -30 28 -66 28 -24 45 -32 60 -27 29 9 25 26 -18 68 -41 40 -51 44 -70 25z"/>
 <path d="M2290 1115 c-13 -14 -20 -28 -17 -32 8 -7 57 35 57 49 0 15 -16 8 -40 -17z"/>
 </g>
<g id="layer3" fill="#026fe0" stroke="none">
 <path d="M770 1005 c0 -13 72 -15 585 -15 513 0 585 2 585 15 0 13 -72 15 -585 15 -513 0 -585 -2 -585 -15z"/>
 </g>
<g id="layer4" fill="#bdc7cd" stroke="none">
 <path d="M2146 1419 c-33 -39 -33 -44 4 -81 17 -16 30 -32 30 -36 0 -3 -17 -23 -37 -44 -20 -21 -34 -41 -30 -45 9 -8 43 23 109 100 l51 58 -39 40 c-21 21 -43 39 -50 39 -7 0 -24 -14 -38 -31z"/>
 <path d="M2000 1270 c0 -14 75 -90 89 -90 21 0 10 21 -30 58 -47 42 -59 49 -59 32z"/>
 <path d="M2245 1069 c-4 -6 -5 -13 -2 -16 7 -7 27 6 27 18 0 12 -17 12 -25 -2z"/>
 </g>
<g id="layer5" fill="#e7b55c" stroke="none">
 <path d="M1345 2210 c-13 -21 19 -43 200 -139 37 -20 38 -21 12 -21 -16 0 -27 -5 -27 -14 0 -9 15 -15 48 -18 26 -3 47 -4 48 -4 1 1 -1 31 -4 68 -4 57 -7 67 -26 71 -22 5 -200 54 -228 63 -9 3 -19 0 -23 -6z"/>
 <path d="M1340 1865 c0 -8 5 -15 10 -15 6 0 10 7 10 15 0 8 -4 15 -10 15 -5 0 -10 -7 -10 -15z"/>
 <path d="M1437 1873 c-14 -13 -6 -33 13 -33 11 0 20 4 20 9 0 13 -26 32 -33 24z"/>
 </g>
<g id="layer6" fill="#fc5664" stroke="none">
 <path d="M477 144 c-4 -4 -7 -29 -7 -56 l0 -48 131 0 130 0 -3 53 -3 52 -121 3 c-66 1 -123 -1 -127 -4z"/>
 </g>
<g id="layer7" fill="#f0b191" stroke="none">
 <path d="M1328 2186 c-21 -15 -23 -26 -7 -26 13 0 134 -84 164 -115 16 -15 34 -20 78 -20 70 0 74 15 15 48 -45 26 -219 120 -228 124 -3 1 -13 -4 -22 -11z"/>
 <path d="M1271 2126 c-12 -14 -9 -35 20 -141 33 -121 35 -125 62 -125 21 0 27 5 27 23 0 12 -6 33 -13 47 -13 26 -73 175 -79 199 -3 10 -7 10 -17 -3z"/>
 <path d="M490 45 c0 -12 19 -15 110 -15 91 0 110 3 110 15 0 12 -19 15 -110 15 -91 0 -110 -3 -110 -15z"/>
 </g>
<g id="layer8" fill="#ffda29" stroke="none">
 <path d="M1490 2020 c0 -5 7 -10 15 -10 8 0 15 5 15 10 0 6 -7 10 -15 10 -8 0 -15 -4 -15 -10z"/>
 <path d="M1443 1862 c2 -27 42 -71 282 -312 153 -154 282 -280 285 -280 13 0 123 120 117 127 -4 4 -29 -14 -55 -40 l-47 -47 -292 292 c-265 265 -291 288 -290 260z"/>
 <path d="M1390 1865 c0 -8 5 -15 10 -15 6 0 10 7 10 15 0 8 -4 15 -10 15 -5 0 -10 -7 -10 -15z"/>
 <path d="M2150 1435 c-7 -9 -10 -18 -7 -22 8 -7 37 15 37 28 0 14 -16 11 -30 -6z"/>
 <path d="M762 48 c3 -9 39 -14 121 -16 100 -2 117 0 117 13 0 13 -19 15 -121 15 -92 0 -120 -3 -117 -12z"/>
 </g>
<g id="layer9" fill="#facead" stroke="none">
 <path d="M1314 2166 c-3 -9 0 -24 7 -33 13 -15 12 -15 -8 -2 -17 10 -25 11 -34 2 -9 -9 -4 -32 22 -95 18 -46 39 -94 46 -108 7 -14 13 -30 13 -36 0 -18 22 -32 60 -39 l35 -6 0 61 c0 57 3 64 33 91 17 16 32 32 32 36 0 8 -172 135 -190 141 -6 2 -13 -4 -16 -12z m54 -101 c-3 -3 -9 2 -12 12 -6 14 -5 15 5 6 7 -7 10 -15 7 -18z m62 -70 c11 -13 10 -14 -4 -9 -9 3 -16 10 -16 15 0 13 6 11 20 -6z"/>
 </g>
<g id="layer10" fill="#999ea2" stroke="none">
 <path d="M1325 2189 c-4 -6 -5 -13 -2 -16 7 -7 27 6 27 18 0 12 -17 12 -25 -2z"/>
 <path d="M1580 2145 c0 -8 5 -15 10 -15 6 0 10 7 10 15 0 8 -4 15 -10 15 -5 0 -10 -7 -10 -15z"/>
 <path d="M1257 2123 c-12 -11 -8 -23 8 -23 8 0 15 7 15 15 0 16 -12 20 -23 8z"/>
 <path d="M1260 2070 c0 -5 7 -10 15 -10 8 0 15 5 15 10 0 6 -7 10 -15 10 -8 0 -15 -4 -15 -10z"/>
 <path d="M1274 2024 c3 -9 6 -20 6 -25 0 -5 7 -9 16 -9 11 0 14 5 10 16 -3 9 -6 20 -6 25 0 5 -7 9 -16 9 -11 0 -14 -5 -10 -16z"/>
 <path d="M1300 1930 c0 -5 7 -10 15 -10 8 0 15 5 15 10 0 6 -7 10 -15 10 -8 0 -15 -4 -15 -10z"/>
 <path d="M1310 1890 c0 -5 7 -10 15 -10 8 0 15 5 15 10 0 6 -7 10 -15 10 -8 0 -15 -4 -15 -10z"/>
 <path d="M2202 1478 c-19 -19 -15 -31 26 -71 44 -43 52 -44 77 -17 18 20 17 21 -26 60 -47 43 -58 47 -77 28z"/>
 <path d="M2445 1260 c-9 -16 -21 -30 -28 -30 -6 0 -45 -30 -86 -65 -41 -36 -78 -65 -82 -65 -4 0 -31 25 -60 55 -29 30 -58 55 -66 55 -28 0 -10 -37 43 -90 37 -38 53 -61 49 -72 -3 -10 -8 -27 -11 -38 -8 -26 6 -25 64 4 94 48 197 166 217 249 10 38 -20 37 -40 -3z"/>
 <path d="M1970 1227 c0 -7 18 -30 40 -52 33 -32 41 -36 55 -25 19 16 20 34 1 27 -7 -3 -28 10 -47 29 -35 36 -49 42 -49 21z"/>
 </g>
<g id="layer11" fill="#dfdad7" stroke="none">
 <path d="M1295 2150 c-4 -6 4 -24 17 -40 59 -74 96 -128 104 -152 6 -18 34 -25 34 -9 0 5 3 16 6 24 5 14 -130 187 -147 187 -4 0 -11 -5 -14 -10z"/>
 <path d="M2060 1332 c-27 -26 -50 -52 -50 -58 0 -14 76 -87 87 -83 15 7 103 106 103 117 0 6 -11 19 -25 30 -14 11 -25 25 -25 31 0 25 -43 8 -90 -37z"/>
 <path d="M330 150 c0 -21 40 -40 88 -40 49 0 74 13 56 30 -12 10 -144 20 -144 10z"/>
 <path d="M723 128 c2 -7 10 -13 17 -13 7 0 15 6 18 13 2 7 -5 12 -18 12 -13 0 -20 -5 -17 -12z"/>
 <path d="M1002 128 c4 -10 136 -14 606 -16 531 -2 602 0 602 13 0 13 -73 15 -606 15 -480 0 -605 -3 -602 -12z"/>
 </g>
<g id="layer12" fill="#06246b" stroke="none">
 <path d="M277 2404 c-4 -4 -7 -509 -7 -1121 0 -1056 1 -1114 18 -1111 16 3 17 65 20 1106 l2 1102 131 0 c100 0 130 3 127 13 -3 9 -44 13 -144 15 -77 1 -143 -1 -147 -4z"/>
 <path d="M1310 2226 c0 -10 13 -17 38 -21 20 -4 77 -17 125 -31 94 -26 117 -29 117 -16 0 12 -39 29 -124 54 -99 29 -156 35 -156 14z"/>
 <path d="M1230 2180 c0 -5 7 -10 15 -10 8 0 15 5 15 10 0 6 -7 10 -15 10 -8 0 -15 -4 -15 -10z"/>
 <path d="M320 140 c0 -5 5 -10 10 -10 6 0 10 5 10 10 0 6 -4 10 -10 10 -5 0 -10 -4 -10 -10z"/>
 </g>
<g id="layer13" fill="#93d6f8" stroke="none">
 <path d="M760 530 c0 -5 5 -10 10 -10 6 0 10 5 10 10 0 6 -4 10 -10 10 -5 0 -10 -4 -10 -10z"/>
 <path d="M1940 530 c0 -5 5 -10 10 -10 6 0 10 5 10 10 0 6 -4 10 -10 10 -5 0 -10 -4 -10 -10z"/>
 <path d="M564 179 c-3 -6 -2 -15 3 -20 5 -5 346 -8 844 -7 733 3 834 5 834 18 0 13 -101 15 -837 18 -597 1 -839 -1 -844 -9z"/>
 <path d="M722 93 c2 -10 10 -18 18 -18 22 0 18 29 -3 33 -14 3 -18 -1 -15 -15z"/>
 <path d="M1002 93 c3 -17 39 -18 603 -18 527 0 600 2 600 15 0 13 -75 15 -603 18 -571 2 -603 1 -600 -15z"/>
 </g>
<g id="layer14" fill="#f2f4f5" stroke="none">
 <path d="M2020 1290 c0 -5 5 -10 10 -10 6 0 10 5 10 10 0 6 -4 10 -10 10 -5 0 -10 -4 -10 -10z"/>
 <path d="M780 525 c0 -13 71 -15 580 -15 509 0 580 2 580 15 0 13 -71 15 -580 15 -509 0 -580 -2 -580 -15z"/>
 <path d="M352 153 c3 -16 23 -19 198 -23 107 -3 528 -5 935 -5 l740 0 3 23 3 22 -941 0 c-891 0 -941 -1 -938 -17z"/>
 </g>
<g id="layer15" fill="#0566ba" stroke="none">
 <path d="M562 2388 c4 -10 186 -14 849 -18 l844 -5 3 -157 c2 -131 5 -158 17 -158 13 0 15 25 15 155 0 142 -2 157 -20 175 -20 20 -33 20 -866 20 -672 0 -845 -3 -842 -12z"/>
 <path d="M1268 2295 c-31 -17 -37 -52 -12 -62 9 -3 25 -1 35 5 25 16 66 15 120 -2 24 -8 78 -25 119 -36 l75 -22 322 -324 c177 -178 328 -324 336 -324 8 0 18 7 21 16 9 23 7 77 -3 93 -7 11 -12 6 -19 -20 l-10 -34 -182 185 c-100 102 -232 236 -293 298 -61 61 -131 125 -156 141 -42 27 -225 87 -296 97 -16 2 -42 -3 -57 -11z"/>
 <path d="M1244 2114 c3 -9 6 -20 6 -25 0 -5 7 -9 16 -9 11 0 14 5 10 16 -3 9 -6 20 -6 25 0 5 -7 9 -16 9 -11 0 -14 -5 -10 -16z"/>
 <path d="M2260 2020 c0 -5 7 -10 15 -10 8 0 15 5 15 10 0 6 -7 10 -15 10 -8 0 -15 -4 -15 -10z"/>
 <path d="M2262 1955 c0 -22 5 -35 13 -35 8 0 13 13 13 35 0 22 -5 35 -13 35 -8 0 -13 -13 -13 -35z"/>
 <path d="M2271 1874 c0 -11 3 -14 6 -6 3 7 2 16 -1 19 -3 4 -6 -2 -5 -13z"/>
 <path d="M2050 1132 c0 -14 129 -136 137 -129 4 4 -22 37 -57 72 -61 61 -80 75 -80 57z"/>
 <path d="M2220 135 c0 -8 7 -15 15 -15 8 0 15 7 15 15 0 8 -7 15 -15 15 -8 0 -15 -7 -15 -15z"/>
 <path d="M357 124 c-4 -4 -7 -14 -7 -21 0 -11 15 -13 63 -11 47 2 62 7 62 18 0 11 -14 16 -55 18 -31 2 -59 0 -63 -4z"/>
 <path d="M710 110 c0 -5 14 -10 30 -10 17 0 30 5 30 10 0 6 -13 10 -30 10 -16 0 -30 -4 -30 -10z"/>
 <path d="M990 110 c0 -5 7 -10 15 -10 8 0 15 5 15 10 0 6 -7 10 -15 10 -8 0 -15 -4 -15 -10z"/>
 </g>
<g id="layer16" fill="#5c6269" stroke="none">
 <path d="M1230 2229 c0 -20 43 -89 56 -89 6 0 17 7 25 16 11 13 7 20 -25 50 -38 35 -56 42 -56 23z"/>
 <path d="M1370 2206 c0 -7 12 -16 28 -19 15 -3 35 -9 45 -12 11 -5 17 -2 17 7 0 9 -17 20 -39 26 -48 15 -51 15 -51 -2z"/>
 <path d="M1480 2175 c0 -8 5 -15 10 -15 6 0 10 7 10 15 0 8 -4 15 -10 15 -5 0 -10 -7 -10 -15z"/>
 <path d="M1520 2165 c0 -8 5 -15 10 -15 6 0 10 7 10 15 0 8 -4 15 -10 15 -5 0 -10 -7 -10 -15z"/>
 <path d="M1560 2155 c0 -8 5 -15 10 -15 6 0 10 7 10 15 0 8 -4 15 -10 15 -5 0 -10 -7 -10 -15z"/>
 <path d="M1602 2143 c3 -17 638 -636 645 -630 4 4 -134 149 -307 322 -275 275 -345 339 -338 308z"/>
 <path d="M2280 1472 c0 -5 9 -17 19 -26 11 -10 18 -23 15 -30 -2 -6 25 -40 60 -75 59 -59 74 -91 42 -91 -6 0 -38 27 -71 60 -33 33 -64 60 -70 60 -6 0 -57 -47 -114 -104 -80 -81 -102 -110 -99 -128 2 -15 11 -24 26 -26 12 -2 22 -10 22 -18 0 -8 4 -14 9 -14 5 0 11 -9 14 -21 3 -11 15 -23 26 -26 12 -3 21 -12 21 -19 0 -23 28 -16 46 11 9 14 14 32 10 40 -3 9 0 15 8 15 7 0 46 29 87 65 41 35 79 65 84 65 20 1 62 47 61 66 -1 16 -177 204 -191 204 -3 0 -5 -4 -5 -8z m-113 -317 c17 -19 28 -35 23 -35 -4 0 -20 16 -34 35 -15 19 -25 35 -23 35 2 0 17 -16 34 -35z"/>
 <path d="M2320 1060 c0 -5 5 -10 10 -10 6 0 10 5 10 10 0 6 -4 10 -10 10 -5 0 -10 -4 -10 -10z"/>
 </g>
<g id="layer17" fill="#eb9a1c" stroke="none">
 <path d="M1601 2070 c1 -46 5 -61 18 -65 9 -3 140 -129 291 -280 151 -151 277 -275 280 -275 4 0 19 13 35 30 l28 29 -311 311 c-170 170 -317 310 -326 310 -13 0 -16 -11 -15 -60z"/>
 <path d="M1340 1857 c0 -16 611 -627 628 -627 6 0 12 7 12 15 0 8 -5 15 -10 15 -12 0 -600 589 -600 602 0 4 -7 8 -15 8 -8 0 -15 -6 -15 -13z"/>
 <path d="M755 139 c-15 -23 16 -30 131 -27 98 2 119 6 119 18 0 12 -21 15 -122 18 -81 2 -124 -1 -128 -9z"/>
 </g>
<g id="layer18" fill="#fab30d" stroke="none">
 <path d="M1620 2120 c0 -5 5 -10 10 -10 6 0 10 5 10 10 0 6 -4 10 -10 10 -5 0 -10 -4 -10 -10z"/>
 <path d="M1672 2069 c2 -7 10 -15 17 -17 8 -3 12 1 9 9 -2 7 -10 15 -17 17 -8 3 -12 -1 -9 -9z"/>
 <path d="M1523 2025 c-3 -9 -4 -18 -2 -20 120 -126 605 -605 613 -604 6 0 22 14 35 30 l24 31 -274 275 c-151 151 -286 281 -301 289 -36 19 -87 18 -95 -1z"/>
 <path d="M1732 2009 c2 -7 10 -15 17 -17 8 -3 12 1 9 9 -2 7 -10 15 -17 17 -8 3 -12 -1 -9 -9z"/>
 <path d="M1792 1949 c2 -7 10 -15 17 -17 8 -3 12 1 9 9 -2 7 -10 15 -17 17 -8 3 -12 -1 -9 -9z"/>
 <path d="M1850 1890 c0 -5 5 -10 10 -10 6 0 10 5 10 10 0 6 -4 10 -10 10 -5 0 -10 -4 -10 -10z"/>
 <path d="M1363 1873 c-7 -2 -13 -10 -13 -16 0 -7 137 -149 304 -315 299 -298 335 -327 344 -282 3 16 -597 621 -614 619 -5 0 -15 -3 -21 -6z"/>
 <path d="M1910 1830 c0 -5 5 -10 10 -10 6 0 10 5 10 10 0 6 -4 10 -10 10 -5 0 -10 -4 -10 -10z"/>
 <path d="M1962 1779 c2 -7 10 -15 17 -17 8 -3 12 1 9 9 -2 7 -10 15 -17 17 -8 3 -12 -1 -9 -9z"/>
 <path d="M2022 1719 c2 -7 10 -15 17 -17 8 -3 12 1 9 9 -2 7 -10 15 -17 17 -8 3 -12 -1 -9 -9z"/>
 <path d="M2082 1659 c2 -7 10 -15 17 -17 8 -3 12 1 9 9 -2 7 -10 15 -17 17 -8 3 -12 -1 -9 -9z"/>
 <path d="M2142 1599 c2 -7 10 -15 17 -17 8 -3 12 1 9 9 -2 7 -10 15 -17 17 -8 3 -12 -1 -9 -9z"/>
 <path d="M2200 1540 c0 -5 5 -10 10 -10 6 0 10 5 10 10 0 6 -4 10 -10 10 -5 0 -10 -4 -10 -10z"/>
 <path d="M757 124 c-12 -13 -8 -61 7 -73 9 -8 52 -11 127 -9 l114 3 0 40 0 40 -121 3 c-66 1 -123 -1 -127 -4z"/>
 </g>
<g id="layer19" fill="#ffcd03" stroke="none">
 <path d="M1481 2014 c-25 -18 -51 -71 -51 -106 0 -16 83 -106 292 -315 161 -161 297 -293 303 -293 14 0 105 92 105 106 0 6 -37 47 -82 91 -46 45 -184 183 -307 307 -124 124 -228 226 -231 226 -3 0 -16 -7 -29 -16z"/>
 <path d="M1410 1856 c0 -7 131 -145 291 -306 220 -221 293 -290 302 -281 9 9 -60 83 -283 306 -162 162 -298 295 -302 295 -5 0 -8 -6 -8 -14z"/>
 </g>
<g id="layer20" fill="#85aecc" stroke="none">
 <path d="M760 990 c0 -5 5 -10 10 -10 6 0 10 5 10 10 0 6 -4 10 -10 10 -5 0 -10 -4 -10 -10z"/>
 <path d="M1940 990 c0 -5 5 -10 10 -10 6 0 10 5 10 10 0 6 -4 10 -10 10 -5 0 -10 -4 -10 -10z"/>
 <path d="M914 876 c-3 -8 -4 -29 -2 -48 l3 -33 445 0 445 0 0 45 0 45 -443 3 c-374 2 -443 0 -448 -12z"/>
 <path d="M914 716 c-3 -8 -4 -29 -2 -48 l3 -33 445 0 445 0 0 45 0 45 -443 3 c-374 2 -443 0 -448 -12z"/>
 <path d="M300 175 c0 -8 7 -15 15 -15 8 0 15 7 15 15 0 8 -7 15 -15 15 -8 0 -15 -7 -15 -15z"/>
 <path d="M548 173 c7 -3 16 -2 19 1 4 3 -2 6 -13 5 -11 0 -14 -3 -6 -6z"/>
 <path d="M2230 164 c0 -17 22 -14 28 4 2 7 -3 12 -12 12 -9 0 -16 -7 -16 -16z"/>
 <path d="M280 130 c0 -5 5 -10 10 -10 6 0 10 5 10 10 0 6 -4 10 -10 10 -5 0 -10 -4 -10 -10z"/>
 <path d="M312 93 c4 -22 38 -30 38 -10 0 8 -7 18 -16 21 -23 9 -26 8 -22 -11z"/>
 <path d="M2197 103 c-12 -11 -8 -23 8 -23 8 0 15 7 15 15 0 16 -12 20 -23 8z"/>
 <path d="M740 90 c0 -5 7 -10 15 -10 8 0 15 5 15 10 0 6 -7 10 -15 10 -8 0 -15 -4 -15 -10z"/>
 </g>
<g id="layer21" fill="#01509d" stroke="none">
 <path d="M302 2388 c-9 -9 -12 -269 -12 -1110 0 -969 2 -1098 15 -1098 13 0 15 128 15 1095 0 723 3 1095 10 1095 10 0 13 -45 10 -165 -1 -38 -2 -77 -2 -85 0 -8 1 -42 2 -75 2 -33 0 -70 -4 -82 -4 -12 -3 -24 1 -26 4 -3 8 -174 8 -381 -1 -382 2 -412 35 -351 9 16 16 21 20 14 10 -15 66 14 80 41 6 12 21 20 35 20 23 0 25 -4 25 -46 0 -41 -1 -44 -16 -30 -8 9 -19 16 -24 16 -5 0 -15 3 -24 6 -12 5 -16 0 -16 -21 0 -23 -2 -26 -15 -15 -11 9 -18 10 -28 1 -8 -6 -16 -8 -20 -5 -7 7 -57 -25 -57 -37 0 -5 7 -9 15 -9 8 0 15 -9 15 -20 0 -11 -7 -20 -16 -20 -11 0 -14 -6 -8 -22 4 -13 12 -26 18 -30 7 -5 4 -8 -6 -8 -21 0 -23 -11 -6 -28 17 -17 28 -15 28 4 0 8 5 12 10 9 6 -3 10 -21 10 -40 0 -19 5 -37 11 -41 8 -4 7 -9 -2 -15 -10 -6 -11 -9 -1 -9 6 0 12 -8 12 -17 0 -13 3 -14 11 -6 6 6 18 9 25 6 8 -3 14 0 14 6 0 6 7 11 15 11 8 0 24 10 35 23 l21 22 -3 -35 c-3 -30 -7 -36 -33 -40 -27 -5 -30 -9 -31 -41 0 -19 -4 -41 -8 -48 -11 -17 -1 -24 23 -16 12 3 21 13 21 21 0 8 4 14 9 14 12 0 21 -61 19 -137 -1 -51 -5 -64 -20 -69 -24 -7 -23 -25 1 -31 16 -4 19 -14 19 -61 0 -75 -5 -89 -28 -95 -11 -3 -20 -10 -20 -16 0 -7 8 -7 25 -1 l25 10 0 -120 c0 -100 3 -120 15 -120 13 0 15 129 15 1098 0 841 -3 1101 -12 1110 -8 8 -51 12 -128 12 -77 0 -120 -4 -128 -12z m233 -1066 c-3 -3 -11 0 -18 7 -9 10 -8 11 6 5 10 -3 15 -9 12 -12z m-85 -42 c0 -5 -7 -7 -15 -4 -8 4 -12 10 -9 15 6 11 24 2 24 -11z m20 -134 c0 -6 4 -5 9 3 14 21 49 21 54 0 6 -23 -36 -29 -81 -11 -19 7 -43 10 -55 6 -18 -6 -20 -5 -10 8 14 17 83 12 83 -6z m-10 -47 c0 -5 -9 -4 -19 3 -11 7 -17 16 -14 20 5 10 33 -10 33 -23z m-56 6 c-4 -8 -8 -15 -10 -15 -2 0 -4 7 -4 15 0 8 4 15 10 15 5 0 7 -7 4 -15z m130 -21 c3 -8 2 -12 -4 -9 -6 3 -10 10 -10 16 0 14 7 11 14 -7z m-89 -64 c7 0 16 6 18 13 3 7 6 5 6 -5 1 -10 8 -18 16 -18 8 0 15 8 15 18 0 14 2 15 10 2 9 -13 11 -13 20 0 7 10 10 11 10 2 0 -7 -11 -18 -25 -24 -14 -6 -25 -14 -25 -18 0 -4 -9 -10 -20 -13 -13 -3 -20 0 -20 9 0 8 -7 17 -15 20 -8 4 -15 14 -14 23 0 10 2 11 6 4 2 -7 11 -13 18 -13z m67 -62 c-6 -6 -15 -8 -19 -4 -4 4 -1 11 7 16 19 12 27 3 12 -12z m-47 -8 c3 -5 1 -10 -4 -10 -6 0 -11 5 -11 10 0 6 2 10 4 10 3 0 8 -4 11 -10z m45 -100 c0 -5 -2 -10 -4 -10 -3 0 -8 5 -11 10 -3 6 -1 10 4 10 6 0 11 -4 11 -10z"/>
 <path d="M1303 2253 c-13 -2 -23 -10 -23 -18 0 -9 18 -15 58 -18 68 -5 186 -38 250 -71 32 -17 147 -125 366 -345 176 -177 323 -321 328 -321 4 0 8 9 8 20 0 11 -6 20 -13 20 -7 0 -155 144 -329 319 -174 176 -336 331 -360 344 -39 23 -227 79 -253 76 -5 -1 -20 -4 -32 -6z"/>
 <path d="M1220 2210 c0 -5 7 -10 15 -10 8 0 15 5 15 10 0 6 -7 10 -15 10 -8 0 -15 -4 -15 -10z"/>
 <path d="M352 968 c6 -18 28 -21 28 -4 0 9 -7 16 -16 16 -9 0 -14 -5 -12 -12z"/>
 <path d="M350 915 c0 -14 34 -55 45 -55 3 0 5 7 5 15 0 8 -4 15 -10 15 -5 0 -10 9 -10 20 0 11 -7 20 -15 20 -8 0 -15 -7 -15 -15z"/>
 <path d="M346 854 c-9 -22 -8 -24 9 -24 8 0 15 6 15 14 0 22 -17 28 -24 10z"/>
 <path d="M432 846 c6 -29 -3 -33 -26 -11 -13 13 -15 12 -21 -14 -3 -16 -15 -37 -26 -47 -22 -20 -25 -39 -5 -31 25 10 27 -6 5 -29 -18 -19 -20 -26 -9 -39 14 -16 40 -20 40 -6 0 5 -6 12 -12 14 -8 4 -4 8 10 13 19 6 22 11 17 33 -4 14 -8 36 -10 48 -2 19 1 21 17 12 14 -8 18 -17 14 -35 -5 -18 -3 -22 8 -18 17 6 20 120 4 131 -7 4 -9 -4 -6 -21z"/>
 <path d="M350 635 c0 -8 9 -15 20 -15 24 0 27 15 4 24 -22 9 -24 8 -24 -9z"/>
 <path d="M440 640 c0 -5 9 -10 20 -10 11 0 20 5 20 10 0 6 -9 10 -20 10 -11 0 -20 -4 -20 -10z"/>
 <path d="M390 570 c0 -5 7 -10 15 -10 8 0 15 5 15 10 0 6 -7 10 -15 10 -8 0 -15 -4 -15 -10z"/>
 <path d="M360 505 c0 -8 7 -15 15 -15 8 0 15 7 15 15 0 8 -7 15 -15 15 -8 0 -15 -7 -15 -15z"/>
 <path d="M430 505 c0 -8 5 -15 10 -15 6 0 10 7 10 15 0 8 -4 15 -10 15 -5 0 -10 -7 -10 -15z"/>
 <path d="M460 360 c0 -5 7 -10 15 -10 8 0 15 5 15 10 0 6 -7 10 -15 10 -8 0 -15 -4 -15 -10z"/>
 <path d="M480 296 c0 -9 -4 -16 -10 -16 -5 0 -10 -7 -10 -15 0 -8 -7 -15 -16 -15 -20 0 -13 -24 9 -28 12 -2 17 3 17 17 0 12 6 21 15 21 8 0 15 5 15 10 0 6 7 10 16 10 23 0 11 24 -14 28 -15 2 -22 -2 -22 -12z"/>
 <path d="M350 209 c0 -24 3 -30 16 -25 9 3 20 6 25 6 17 0 9 18 -16 34 -25 16 -25 16 -25 -15z"/>
 <path d="M320 140 c0 -20 25 -38 36 -27 7 6 -18 47 -28 47 -5 0 -8 -9 -8 -20z"/>
 </g>
<g id="layer22" fill="#0079d4" stroke="none">
 <path d="M560 2340 c0 -55 21 -76 66 -67 14 2 24 -1 24 -7 0 -7 -15 -10 -40 -8 -22 2 -40 0 -40 -6 0 -15 24 -21 74 -18 25 1 46 -2 46 -7 0 -5 7 -6 16 -3 12 5 14 1 9 -15 -6 -17 -3 -20 12 -17 13 2 18 12 18 38 0 31 3 35 39 42 29 6 42 5 48 -4 11 -18 10 -38 -2 -38 -5 0 -10 -7 -10 -15 0 -8 5 -15 10 -15 6 0 10 7 10 15 0 8 5 15 10 15 6 0 10 -4 10 -10 0 -5 11 -10 25 -10 30 0 33 20 5 27 -11 3 -17 9 -14 14 7 12 62 11 66 -1 2 -5 13 -7 26 -3 13 3 21 11 19 17 -3 7 4 12 14 12 14 0 18 -5 13 -21 -6 -19 -5 -19 15 3 17 17 26 20 41 12 10 -5 33 -7 51 -3 43 8 31 -11 -22 -36 -39 -19 -40 -19 -34 0 4 13 2 19 -8 19 -8 0 -18 -11 -21 -24 -5 -19 -11 -22 -32 -18 -23 4 -43 -9 -44 -29 0 -3 36 1 80 10 48 10 80 21 80 28 0 7 7 10 15 7 8 -4 15 -13 15 -22 0 -8 11 -35 25 -59 14 -23 21 -43 15 -43 -18 0 -11 -30 8 -31 10 0 12 -3 5 -6 -17 -6 -16 -23 1 -23 16 0 26 -21 26 -54 0 -13 9 -31 19 -40 11 -10 22 -28 25 -42 4 -13 11 -24 16 -24 6 0 10 -6 10 -14 0 -8 9 -17 19 -21 11 -3 23 -15 26 -26 4 -10 13 -19 21 -19 21 0 17 31 -5 37 -15 4 -25 25 -41 86 -12 45 -30 109 -40 142 -40 128 -43 144 -25 181 24 52 51 54 175 14 14 -5 52 -16 85 -25 33 -9 78 -28 100 -42 22 -14 173 -160 335 -325 162 -164 302 -299 311 -298 25 0 30 87 23 455 -5 278 -9 333 -22 348 -14 16 -68 17 -859 17 l-843 0 0 -50z m1384 -85 c-7 -29 3 -33 22 -7 12 15 15 13 30 -25 16 -39 18 -41 31 -25 10 12 16 14 19 5 6 -14 54 -18 54 -5 0 4 3 17 6 30 5 16 2 22 -10 22 -10 0 -16 -8 -16 -21 0 -18 -2 -19 -15 -9 -8 7 -24 10 -34 7 -13 -3 -21 1 -24 14 -6 21 8 35 18 19 9 -14 35 -12 35 3 0 10 29 13 95 8 6 -1 3 -6 -5 -12 -10 -7 -11 -12 -4 -15 7 -3 10 -14 7 -24 -4 -13 0 -20 10 -20 17 0 31 -27 17 -35 -4 -3 -11 1 -13 7 -4 8 -6 7 -6 -4 -1 -9 8 -19 18 -23 12 -4 18 -12 14 -21 -3 -7 0 -14 7 -14 9 0 9 -4 -1 -16 -11 -14 -10 -18 5 -30 16 -11 18 -22 12 -69 -3 -30 -3 -55 2 -55 4 0 9 -21 10 -47 1 -26 6 -49 11 -52 20 -13 11 -111 -11 -111 -5 0 -6 -9 -3 -20 3 -11 2 -20 -3 -20 -12 0 -76 55 -106 90 -12 13 -42 45 -68 71 -27 26 -48 51 -48 56 0 5 -12 20 -27 34 -57 53 -74 80 -62 96 18 21 -3 38 -30 24 -17 -10 -21 -9 -21 4 0 8 5 15 10 15 6 0 10 5 10 10 0 6 -7 10 -15 10 -8 0 -15 -5 -15 -11 0 -23 -20 4 -26 36 -7 37 -27 61 -44 50 -5 -3 -10 1 -10 9 0 9 -4 16 -10 16 -5 0 -7 6 -4 14 3 7 -2 16 -10 19 -29 11 -17 25 29 31 32 5 50 3 69 -9 28 -18 42 -48 27 -53 -6 -2 -11 -10 -11 -19 0 -32 30 15 32 51 3 36 12 46 22 24 3 -9 8 -8 16 5 16 24 21 21 14 -8z"/>
 <path d="M1786 2243 c-11 -11 -7 -23 9 -23 8 0 15 -4 15 -10 0 -16 27 -11 34 6 4 9 5 18 4 19 -10 7 -56 14 -62 8z"/>
 <path d="M1953 2223 c-7 -2 -13 -11 -13 -20 0 -20 34 -12 38 10 3 17 -3 20 -25 10z"/>
 <path d="M2171 2074 c0 -11 3 -14 6 -6 3 7 2 16 -1 19 -3 4 -6 -2 -5 -13z"/>
 <path d="M2177 2013 c-4 -3 -7 -11 -7 -17 0 -6 5 -5 12 2 6 6 9 14 7 17 -3 3 -9 2 -12 -2z"/>
 <path d="M661 2204 c0 -11 3 -14 6 -6 3 7 2 16 -1 19 -3 4 -6 -2 -5 -13z"/>
 <path d="M2260 973 c0 -54 13 -86 24 -58 3 9 6 37 6 61 0 32 -4 44 -15 44 -11 0 -15 -12 -15 -47z"/>
 <path d="M2260 870 c0 -5 7 -10 15 -10 8 0 15 5 15 10 0 6 -7 10 -15 10 -8 0 -15 -4 -15 -10z"/>
 <path d="M724 119 c-10 -17 13 -36 27 -22 12 12 4 33 -11 33 -5 0 -12 -5 -16 -11z"/>
 <path d="M1005 120 c-3 -5 -3 -14 0 -20 9 -14 1189 -14 1216 0 10 6 19 15 19 20 0 14 -1227 13 -1235 0z"/>
 </g>
<g id="layer23" fill="#0356a4" stroke="none">
 <path d="M570 2395 c0 -13 100 -15 836 -15 557 0 842 -3 855 -10 23 -13 26 2 3 24 -14 14 -105 16 -855 16 -739 0 -839 -2 -839 -15z"/>
 <path d="M305 2379 c-3 -8 -4 -507 -3 -1109 l3 -1095 125 0 125 0 -2 640 c-1 352 -2 653 -3 668 -1 16 2 41 5 57 5 24 3 29 -15 32 -20 3 -20 4 -3 28 24 35 28 256 5 283 -14 15 -14 17 0 17 18 0 19 53 2 70 -9 9 -8 23 1 54 13 42 10 96 -5 96 -4 0 -13 -6 -19 -14 -13 -16 -54 -29 -45 -15 3 5 11 9 17 9 7 1 22 17 34 36 28 43 31 134 4 134 -17 -1 -61 -30 -44 -30 6 0 8 -11 5 -25 -4 -24 -5 -24 -18 -8 -25 33 -16 52 36 78 28 14 50 28 50 31 0 8 -34 58 -45 66 -16 12 -23 9 -30 -12 -3 -11 -18 -23 -33 -26 -15 -4 -32 -11 -39 -16 -7 -6 -13 -4 -16 4 -3 10 -10 8 -26 -6 -18 -16 -21 -17 -21 -3 0 8 7 23 16 32 20 19 17 23 -24 31 -22 5 -33 2 -37 -7z m223 -36 c6 -19 -25 -16 -32 3 -4 11 -1 14 11 12 9 -2 18 -9 21 -15z m-88 -54 c0 -5 -4 -9 -10 -9 -5 0 -10 7 -10 16 0 8 5 12 10 9 6 -3 10 -10 10 -16z m-17 -31 c3 -8 -5 -14 -20 -14 -22 -2 -23 -1 -6 12 22 17 20 16 26 2z m-43 -131 c0 -5 -4 -5 -10 -2 -5 3 -10 14 -10 23 0 15 2 15 10 2 5 -8 10 -19 10 -23z m60 -31 c0 -3 -4 -8 -10 -11 -5 -3 -10 -1 -10 4 0 6 5 11 10 11 6 0 10 -2 10 -4z m-5 -106 c3 -5 2 -10 -4 -10 -5 0 -13 5 -16 10 -3 6 -2 10 4 10 5 0 13 -4 16 -10z m-40 -38 c-3 -3 -11 0 -18 7 -9 10 -8 11 6 5 10 -3 15 -9 12 -12z m61 -116 c-4 -17 -13 -26 -25 -26 -11 0 -22 -6 -25 -12 -3 -7 -3 -2 0 12 4 14 13 29 20 33 8 4 14 15 14 24 0 13 3 14 11 6 7 -7 9 -23 5 -37z m-10 -123 c-11 -11 -17 4 -9 23 7 18 8 18 11 1 2 -10 1 -21 -2 -24z m16 -67 c-3 -5 -11 -1 -19 9 -20 28 -16 41 6 19 10 -10 16 -23 13 -28z m35 -8 c-3 -8 -6 -5 -6 6 -1 11 2 17 5 13 3 -3 4 -12 1 -19z m-110 -194 c-3 -3 -12 -4 -19 -1 -8 3 -5 6 6 6 11 1 17 -2 13 -5z m10 -71 c-15 -16 -17 -16 -17 -1 0 9 6 18 13 21 20 7 22 -2 4 -20z m-24 -148 c-3 -9 -8 -14 -10 -11 -3 3 -2 9 2 15 9 16 15 13 8 -4z"/>
 <path d="M400 2370 c0 -5 5 -10 10 -10 6 0 10 5 10 10 0 6 -4 10 -10 10 -5 0 -10 -4 -10 -10z"/>
 <path d="M1297 2263 c-4 -3 -7 -13 -7 -21 0 -10 7 -12 26 -8 34 9 217 -38 269 -69 22 -13 184 -168 359 -344 249 -249 323 -318 333 -309 19 16 16 38 -6 38 -11 0 -114 96 -252 236 -267 270 -362 363 -402 394 -15 12 -78 37 -140 56 -108 32 -166 41 -180 27z"/>
 <path d="M300 150 c0 -5 7 -10 15 -10 8 0 15 5 15 10 0 6 -7 10 -15 10 -8 0 -15 -4 -15 -10z"/>
 <path d="M460 110 c0 -5 7 -10 15 -10 8 0 15 5 15 10 0 6 -7 10 -15 10 -8 0 -15 -4 -15 -10z"/>
 </g>
<g id="layer24" fill="#b2d9f5" stroke="none">
 <path d="M2105 1380 c-10 -11 -15 -23 -12 -27 8 -7 47 25 47 39 0 14 -16 9 -35 -12z"/>
 <path d="M770 990 c-19 -19 -20 -33 -20 -233 0 -152 3 -216 12 -225 17 -17 1179 -17 1196 0 9 9 12 73 12 225 0 200 -1 214 -20 233 -20 20 -33 20 -590 20 -557 0 -570 0 -590 -20z m1020 -150 l0 -30 -430 0 -430 0 0 30 0 30 430 0 430 0 0 -30z m0 -160 l0 -30 -430 0 -430 0 0 30 0 30 430 0 430 0 0 -30z"/>
 </g>
<g id="layer25" fill="#03a3f3" stroke="none">
 <path d="M550 840 c0 -568 2 -660 14 -660 8 0 16 10 18 23 3 20 8 22 49 19 35 -3 48 0 52 12 8 20 27 21 27 1 0 -17 16 -20 25 -5 4 7 13 6 27 -1 17 -9 23 -8 30 5 8 14 11 14 23 3 16 -17 197 -15 203 2 2 7 13 6 31 -4 34 -17 133 -14 156 5 12 10 21 10 45 0 17 -7 44 -10 65 -6 19 4 40 4 46 0 10 -6 129 -8 301 -4 47 1 91 -1 98 -5 6 -4 18 1 25 11 13 17 14 17 15 2 0 -14 8 -16 54 -13 30 3 58 5 63 6 4 1 10 0 13 -1 3 -1 54 -3 114 -5 l110 -2 34 34 c32 33 34 38 27 81 -11 78 -12 86 -14 109 0 12 -7 28 -15 35 -12 11 -12 15 0 29 18 21 8 49 -18 49 -17 0 -19 5 -13 39 6 34 3 41 -15 51 -20 10 -21 10 -16 -8 6 -17 2 -19 -24 -17 -17 1 -33 5 -36 8 -3 3 -17 2 -30 -3 -14 -6 -26 -6 -29 0 -14 22 -37 10 -34 -18 1 -15 -3 -39 -9 -54 -10 -23 -18 -28 -49 -29 -201 -3 -1135 1 -1143 6 -5 3 -13 24 -16 45 -7 43 -25 55 -68 44 -18 -4 -26 -2 -26 7 0 10 -3 10 -12 1 -17 -17 -29 -15 -22 3 7 18 -17 20 -34 3 -9 -9 -12 77 -13 387 -1 220 0 417 1 438 1 27 -2 37 -14 37 -14 0 -16 -71 -16 -660z m120 -261 c0 -6 -4 -7 -10 -4 -5 3 -10 11 -10 16 0 6 5 7 10 4 6 -3 10 -11 10 -16z m1470 11 c0 -5 -5 -10 -11 -10 -5 0 -7 5 -4 10 3 6 8 10 11 10 2 0 4 -4 4 -10z"/>
 </g>
<g id="layer26" fill="#313944" stroke="none">
 <path d="M212 2537 c-13 -13 -27 -39 -32 -58 -15 -53 -13 -2191 2 -2242 13 -45 67 -107 92 -107 15 0 16 92 16 1130 l0 1130 988 -2 987 -3 3 -450 2 -449 23 -26 c12 -14 31 -36 42 -49 l20 -24 -22 14 c-19 11 -25 11 -42 -5 -12 -11 -20 -24 -20 -30 1 -6 33 -40 71 -76 57 -54 72 -62 86 -53 11 7 16 22 15 42 -1 26 1 30 13 20 19 -16 18 -31 -7 -84 -26 -56 -91 -129 -141 -161 l-38 -24 0 -425 c0 -414 0 -425 -20 -435 -28 -15 -28 -70 -1 -70 31 0 97 84 120 153 20 57 21 83 21 417 0 376 2 395 47 431 9 8 36 40 60 73 43 58 43 59 43 142 l0 84 -65 69 c-36 37 -65 75 -65 84 0 9 -4 19 -10 22 -6 4 -10 161 -10 438 -1 452 -3 481 -46 528 -17 19 -42 19 -1064 19 l-1047 0 -21 -23z"/>
 <path d="M1241 2227 c-12 -31 6 -107 26 -107 23 0 26 26 6 56 l-18 28 32 -19 c26 -15 34 -16 47 -6 34 28 17 47 -57 65 -23 5 -29 3 -36 -17z"/>
 <path d="M1460 2185 c0 -8 5 -15 10 -15 6 0 10 7 10 15 0 8 -4 15 -10 15 -5 0 -10 -7 -10 -15z"/>
 <path d="M2054 1155 c-4 -9 19 -39 60 -80 59 -59 86 -73 86 -44 0 9 -128 139 -137 139 -2 0 -6 -7 -9 -15z"/>
 <path d="M410 78 c0 -8 15 -19 33 -26 45 -16 49 -15 45 11 -2 18 -10 23 -40 25 -27 2 -38 -1 -38 -10z"/>
 <path d="M714 76 c-10 -26 4 -48 28 -44 17 2 23 10 23 28 0 18 -6 26 -23 28 -13 2 -25 -3 -28 -12z"/>
 <path d="M997 83 c-4 -3 -7 -15 -7 -26 0 -15 4 -18 23 -12 12 3 43 9 70 12 30 4 47 10 47 19 0 10 -16 14 -63 14 -35 0 -67 -3 -70 -7z"/>
 </g>
<g id="layer27" fill="#0085dd" stroke="none">
 <path d="M553 2318 c4 -35 7 -242 7 -461 1 -219 4 -405 7 -413 4 -10 16 -12 47 -8 22 4 46 11 53 16 7 5 14 5 17 -1 4 -5 -3 -12 -14 -16 -28 -9 -60 -45 -60 -67 0 -23 14 -23 37 0 24 25 51 34 57 19 2 -7 5 0 5 14 1 15 7 29 15 32 11 4 12 -2 5 -31 -12 -52 -11 -62 5 -62 20 0 31 21 16 30 -10 6 -9 9 1 15 8 6 18 1 27 -13 10 -16 25 -22 49 -22 33 0 35 2 31 28 -2 16 2 34 9 40 17 17 44 15 37 -2 -8 -20 10 -28 40 -16 17 6 27 6 32 -1 3 -6 -4 -13 -15 -16 -12 -3 -20 -10 -18 -16 7 -23 27 -17 43 15 9 18 19 27 21 21 8 -22 31 -14 37 12 5 19 13 25 32 25 20 0 25 -4 20 -16 -3 -9 -6 -20 -6 -25 0 -5 -5 -9 -11 -9 -15 0 -39 -26 -39 -43 0 -10 8 -13 25 -9 14 2 25 10 25 17 0 16 38 65 51 65 5 0 9 -9 9 -20 0 -18 6 -20 40 -18 44 3 46 6 25 34 -17 23 -20 43 -3 26 18 -18 35 -15 41 8 3 11 10 20 16 20 14 0 14 -17 1 -25 -16 -10 -12 -25 8 -26 10 0 12 -3 5 -6 -7 -2 -13 -11 -13 -19 0 -8 -7 -17 -15 -20 -14 -6 -13 -8 2 -20 10 -7 25 -13 33 -13 10 0 11 2 3 6 -14 5 -18 33 -5 33 5 0 18 -9 30 -20 18 -17 22 -18 22 -5 0 8 -5 24 -12 34 -9 15 -8 22 5 35 8 9 21 16 28 16 10 0 10 -3 1 -12 -18 -18 -15 -36 8 -43 11 -3 20 -15 20 -25 0 -25 20 -37 22 -13 0 10 2 24 2 31 1 7 7 16 13 20 9 6 7 12 -7 22 -27 20 -25 27 9 32 23 3 27 1 23 -14 -5 -21 26 -26 45 -7 8 8 19 6 39 -5 l29 -15 -42 -1 c-24 0 -43 -4 -43 -10 0 -5 9 -10 20 -10 11 0 20 -4 20 -10 0 -12 27 -14 32 -2 2 4 19 18 39 30 l36 22 -5 -25 c-2 -15 0 -25 7 -25 7 0 9 -4 6 -10 -3 -5 -19 -10 -36 -10 -16 0 -29 -4 -29 -8 0 -5 42 -9 94 -9 105 -1 149 -15 154 -51 2 -14 10 -22 22 -22 13 0 17 -5 14 -15 -4 -10 0 -15 14 -15 10 0 31 -9 45 -20 14 -11 30 -20 36 -20 5 0 14 -6 18 -14 10 -18 83 -76 94 -76 5 0 9 4 9 10 0 15 -681 700 -696 700 -8 0 -14 6 -14 13 0 6 -15 24 -34 39 -24 19 -42 49 -62 100 -15 40 -34 82 -41 93 -7 11 -13 28 -13 37 0 10 -4 26 -9 36 -18 32 -24 57 -22 85 2 15 -2 27 -7 27 -5 0 -12 9 -15 20 -3 13 -14 20 -31 20 -20 0 -24 4 -19 17 5 13 2 15 -15 11 -12 -4 -25 -2 -28 3 -10 17 -26 9 -21 -11 3 -12 0 -20 -8 -20 -7 0 -12 7 -11 16 0 9 -5 19 -13 22 -10 3 -13 -1 -9 -14 4 -18 -2 -19 -79 -19 -60 0 -83 3 -83 13 0 6 -4 12 -10 12 -5 0 -10 -4 -10 -8 0 -5 -27 -6 -60 -4 -42 3 -63 0 -73 -10 -18 -18 -98 -12 -91 7 3 7 1 16 -5 20 -6 3 -11 17 -11 31 0 16 -6 24 -16 24 -14 0 -16 -9 -11 -62z m1077 -858 c0 -5 -5 -10 -11 -10 -5 0 -7 5 -4 10 3 6 8 10 11 10 2 0 4 -4 4 -10z m-826 -30 c12 -26 12 -30 0 -30 -8 0 -14 9 -14 20 0 11 -4 20 -10 20 -5 0 -10 5 -10 10 0 20 19 9 34 -20z m175 4 c-15 -18 -22 -13 -13 10 3 9 10 13 16 10 5 -3 4 -12 -3 -20z m211 1 c0 -8 -7 -15 -16 -15 -14 0 -14 3 -4 15 7 8 14 15 16 15 2 0 4 -7 4 -15z m467 -27 c-3 -8 -6 -5 -6 6 -1 11 2 17 5 13 3 -3 4 -12 1 -19z m73 -40 c0 -6 -6 -5 -15 2 -8 7 -15 14 -15 16 0 2 7 1 15 -2 8 -4 15 -11 15 -16z"/>
 <path d="M1628 2323 c-27 -7 -22 -20 7 -20 15 0 25 5 25 13 0 14 -3 15 -32 7z"/>
 <path d="M1842 2312 c4 -14 -1 -17 -31 -14 -47 4 -55 4 -123 -4 -57 -6 -81 -24 -33 -24 18 0 25 -5 25 -20 0 -13 7 -20 20 -20 12 0 24 -9 29 -22 5 -13 18 -32 30 -42 11 -11 21 -24 21 -30 0 -13 47 -69 143 -169 37 -38 67 -73 67 -76 0 -13 200 -210 220 -216 28 -9 73 20 66 43 -3 9 -8 54 -11 100 -3 46 -10 94 -15 107 -6 16 -5 25 3 29 9 3 9 5 0 5 -9 1 -13 19 -13 56 0 30 -4 55 -9 55 -4 0 -11 26 -15 57 -4 31 -12 63 -18 71 -10 11 -9 17 5 27 9 7 17 21 16 31 0 11 -3 13 -6 7 -7 -19 -20 -16 -26 7 -4 15 -14 20 -41 20 -20 0 -36 5 -36 10 0 15 -43 12 -65 -4 -16 -12 -22 -12 -41 0 -15 10 -29 12 -45 6 -34 -13 -64 -9 -83 11 -23 22 -40 22 -34 -1z"/>
 <path d="M590 1404 c0 -9 5 -14 12 -12 18 6 21 28 4 28 -9 0 -16 -7 -16 -16z"/>
 <path d="M1430 1377 c0 -8 13 -25 29 -40 25 -22 31 -24 41 -12 15 18 5 35 -21 35 -10 0 -19 7 -19 15 0 8 -7 15 -15 15 -8 0 -15 -6 -15 -13z"/>
 <path d="M870 1370 c0 -6 7 -13 15 -17 24 -9 27 1 5 15 -13 8 -20 8 -20 2z"/>
 <path d="M990 1354 c0 -9 5 -14 12 -12 18 6 21 28 4 28 -9 0 -16 -7 -16 -16z"/>
 <path d="M570 1345 c0 -8 5 -15 10 -15 6 0 10 7 10 15 0 8 -4 15 -10 15 -5 0 -10 -7 -10 -15z"/>
 <path d="M840 1325 c0 -8 5 -15 10 -15 6 0 10 7 10 15 0 8 -4 15 -10 15 -5 0 -10 -7 -10 -15z"/>
 <path d="M1001 1304 c0 -11 3 -14 6 -6 3 7 2 16 -1 19 -3 4 -6 -2 -5 -13z"/>
 <path d="M1151 1304 c0 -11 3 -14 6 -6 3 7 2 16 -1 19 -3 4 -6 -2 -5 -13z"/>
 <path d="M2080 1090 c0 -5 5 -10 10 -10 6 0 10 5 10 10 0 6 -4 10 -10 10 -5 0 -10 -4 -10 -10z"/>
 <path d="M767 1018 c-9 -5 -17 -18 -17 -30 0 -20 1 -20 20 -3 16 14 37 17 115 17 75 -1 95 2 95 13 0 11 -20 14 -98 13 -54 0 -106 -4 -115 -10z"/>
 <path d="M1010 1015 c0 -11 34 -13 165 -13 122 1 165 4 165 13 0 9 -43 12 -165 13 -131 0 -165 -2 -165 -13z"/>
 <path d="M1360 1015 c0 -15 216 -21 238 -6 25 15 -16 22 -130 20 -80 -1 -108 -4 -108 -14z"/>
 <path d="M1630 1015 c0 -9 37 -13 145 -14 124 -1 145 1 145 14 0 13 -21 15 -145 14 -108 -1 -145 -5 -145 -14z"/>
 <path d="M2227 1013 c-13 -12 -7 -43 8 -43 8 0 15 -4 15 -10 0 -5 7 -10 15 -10 10 0 15 11 15 35 0 30 -3 35 -23 35 -13 0 -27 -3 -30 -7z"/>
 <path d="M1940 1001 c0 -5 7 -14 15 -21 16 -14 18 -10 9 14 -6 17 -24 22 -24 7z"/>
 <path d="M2267 913 c-12 -12 -7 -33 8 -33 17 0 19 9 7 28 -5 7 -11 9 -15 5z"/>
 <path d="M1950 890 c0 -5 7 -10 15 -10 8 0 15 5 15 10 0 6 -7 10 -15 10 -8 0 -15 -4 -15 -10z"/>
 <path d="M2260 524 c0 -300 2 -335 15 -324 23 19 22 660 0 660 -13 0 -15 -49 -15 -336z"/>
 </g>
<g id="layer28" fill="#0096e9" stroke="none">
 <path d="M550 1897 c0 -216 3 -396 6 -400 4 -3 6 -208 6 -454 0 -246 2 -468 6 -493 6 -37 11 -46 30 -48 19 -3 22 1 22 28 0 18 4 29 10 25 6 -3 10 -15 10 -27 0 -14 5 -18 16 -14 9 3 19 6 22 6 4 0 0 5 -8 10 -19 12 -5 26 38 35 28 6 32 4 32 -14 0 -12 6 -21 15 -21 14 0 16 29 14 229 -1 126 2 234 5 240 8 12 1159 11 1171 -1 4 -4 8 -111 9 -239 1 -176 4 -233 14 -236 7 -3 12 5 12 19 0 26 7 27 132 19 11 -1 15 -7 11 -20 -3 -13 -11 -17 -24 -14 -24 7 -36 -22 -18 -43 11 -14 14 -13 24 6 l11 21 30 -26 c16 -14 33 -25 37 -25 4 0 3 -10 -4 -21 -9 -17 -13 -19 -20 -8 -7 11 -9 9 -9 -8 0 -13 8 -24 19 -28 22 -7 41 -97 21 -103 -6 -2 -23 -15 -37 -29 -14 -15 -28 -22 -32 -16 -9 14 -41 24 -54 16 -6 -4 -29 -6 -51 -6 -23 1 -47 -4 -53 -9 -9 -7 -13 -7 -13 2 0 8 -8 10 -21 7 -12 -3 -32 -2 -45 3 -15 6 -24 6 -24 0 0 -16 -30 -12 -36 5 -5 11 -11 12 -25 4 -24 -13 -187 -17 -199 -5 -5 5 -17 5 -27 1 -26 -10 -103 -14 -103 -5 0 11 -49 9 -56 -2 -3 -5 -12 -4 -20 3 -8 6 -14 7 -14 2 0 -11 -33 -10 -61 2 -10 4 -19 0 -22 -9 -5 -13 -10 -13 -38 1 -22 11 -37 13 -48 6 -17 -10 -164 -9 -181 2 -6 3 -15 3 -22 -1 -18 -11 -58 -14 -58 -4 0 11 -43 0 -52 -14 -5 -7 -8 -6 -8 3 0 9 -8 11 -25 7 -14 -4 -31 -3 -37 0 -17 11 -130 11 -152 1 -12 -6 -27 -5 -41 3 -19 10 -27 9 -49 -5 -21 -14 -26 -25 -24 -49 l3 -31 834 -3 c740 -2 837 0 858 13 l24 16 -1 362 c-1 199 -3 376 -6 394 -6 30 -25 44 -66 47 -9 1 -43 26 -75 57 -32 30 -68 62 -81 71 -12 8 -45 36 -72 62 -27 25 -53 46 -58 46 -5 0 -34 24 -64 53 -30 30 -67 57 -82 61 -15 4 -31 17 -36 31 -5 14 -15 25 -22 25 -7 0 -29 16 -49 36 -28 27 -46 36 -73 37 -21 1 -36 6 -36 13 0 7 -5 16 -11 19 -6 4 -9 0 -7 -11 2 -14 -4 -18 -29 -19 -17 0 -35 -3 -39 -7 -15 -16 -44 -8 -44 12 0 12 7 20 16 20 11 0 14 5 10 16 -3 9 -6 18 -6 20 0 2 -7 4 -16 4 -11 0 -14 -6 -9 -20 5 -14 2 -20 -9 -20 -19 0 -20 -11 -3 -29 10 -11 9 -13 -3 -9 -8 3 -16 14 -18 26 -2 13 -11 22 -20 22 -14 0 -14 -2 -3 -9 26 -17 3 -30 -35 -19 -33 9 -65 1 -36 -9 6 -3 12 -10 12 -16 0 -6 -11 0 -24 12 -13 12 -25 18 -27 12 -2 -6 -20 -12 -39 -13 -30 -3 -35 0 -38 20 -4 24 -22 31 -22 7 0 -18 -46 -21 -53 -2 -4 10 -6 10 -6 0 -2 -27 -21 -11 -21 17 0 17 -5 30 -10 30 -6 0 -10 -8 -8 -17 2 -12 -4 -18 -16 -18 -11 0 -21 -6 -24 -14 -3 -10 1 -12 17 -8 13 3 21 0 21 -7 0 -19 -43 -14 -63 8 -9 10 -19 17 -20 15 -2 -2 -11 -15 -20 -29 -9 -13 -17 -20 -17 -14 0 5 -8 10 -17 11 -10 0 -38 4 -62 8 -42 8 -44 7 -39 -13 4 -12 2 -22 -3 -22 -5 0 -9 16 -9 35 0 19 -4 35 -10 35 -13 0 -50 -37 -50 -50 0 -14 -17 -12 -23 3 -4 10 -6 10 -6 0 -1 -18 -31 -16 -31 2 0 19 -9 19 -32 -2 -11 -9 -18 -11 -18 -5 0 7 -11 12 -25 12 -14 0 -25 5 -25 10 0 6 7 10 15 10 8 0 15 5 15 10 0 6 -4 10 -10 10 -5 0 -10 6 -10 14 0 8 -4 16 -10 18 -6 2 -10 138 -10 371 -1 310 -3 367 -15 367 -12 0 -14 -60 -15 -393z"/>
 <path d="M802 1551 c-11 -7 -11 -9 2 -14 9 -4 23 -4 32 0 13 5 13 7 2 14 -7 5 -15 9 -18 9 -3 0 -11 -4 -18 -9z"/>
 <path d="M1330 1545 c0 -8 5 -15 10 -15 6 0 10 7 10 15 0 8 -4 15 -10 15 -5 0 -10 -7 -10 -15z"/>
 <path d="M1200 1541 c0 -21 13 -41 26 -41 17 0 18 17 2 23 -8 3 -6 6 5 6 27 1 20 21 -8 21 -14 0 -25 -4 -25 -9z"/>
 <path d="M1286 1536 c21 -15 30 -14 19 3 -3 6 -14 11 -23 11 -13 0 -13 -2 4 -14z"/>
 <path d="M1460 1540 c0 -5 7 -10 15 -10 8 0 15 5 15 10 0 6 -7 10 -15 10 -8 0 -15 -4 -15 -10z"/>
 <path d="M728 1533 c7 -3 16 -2 19 1 4 3 -2 6 -13 5 -11 0 -14 -3 -6 -6z"/>
 <path d="M910 1519 c0 -24 23 -21 28 4 2 10 -3 17 -12 17 -10 0 -16 -9 -16 -21z"/>
 <path d="M660 1520 c0 -5 5 -10 10 -10 6 0 10 5 10 10 0 6 -4 10 -10 10 -5 0 -10 -4 -10 -10z"/>
 <path d="M700 527 c0 -17 5 -27 15 -27 8 0 15 -4 15 -10 0 -5 5 -10 10 -10 17 0 11 20 -15 48 l-25 27 0 -28z"/>
 <path d="M2010 540 c0 -5 5 -10 10 -10 6 0 10 5 10 10 0 6 -4 10 -10 10 -5 0 -10 -4 -10 -10z"/>
 <path d="M1042 518 c-20 -20 -14 -25 34 -26 l47 0 -29 19 c-34 22 -36 23 -52 7z"/>
 <path d="M1318 523 c-29 -7 -21 -20 13 -21 18 0 29 4 26 11 -4 13 -16 16 -39 10z"/>
 <path d="M870 503 c0 -14 27 -17 54 -7 28 11 17 23 -19 22 -22 -1 -35 -6 -35 -15z"/>
 <path d="M960 505 c0 -8 5 -15 10 -15 6 0 10 7 10 15 0 8 -4 15 -10 15 -5 0 -10 -7 -10 -15z"/>
 <path d="M1440 511 c0 -10 30 -24 37 -17 3 3 2 9 -2 15 -8 13 -35 15 -35 2z"/>
 <path d="M1660 512 c0 -10 33 -42 43 -42 4 0 7 11 7 25 0 20 -5 25 -25 25 -14 0 -25 -4 -25 -8z"/>
 <path d="M1752 508 c6 -18 28 -21 28 -4 0 9 -7 16 -16 16 -9 0 -14 -5 -12 -12z"/>
 <path d="M1863 513 c-15 -5 -18 -33 -4 -33 8 0 25 30 19 35 -2 1 -9 0 -15 -2z"/>
 <path d="M2011 511 c-11 -7 -9 -10 8 -16 25 -8 36 -2 26 14 -8 13 -15 14 -34 2z"/>
 <path d="M803 503 c9 -2 23 -2 30 0 6 3 -1 5 -18 5 -16 0 -22 -2 -12 -5z"/>
 <path d="M1140 500 c0 -5 5 -10 10 -10 6 0 10 5 10 10 0 6 -4 10 -10 10 -5 0 -10 -4 -10 -10z"/>
 <path d="M1232 498 c6 -18 28 -21 28 -4 0 9 -7 16 -16 16 -9 0 -14 -5 -12 -12z"/>
 <path d="M1370 501 c0 -5 7 -12 16 -15 22 -9 24 -8 24 9 0 8 -9 15 -20 15 -11 0 -20 -4 -20 -9z"/>
 <path d="M1510 494 c0 -9 7 -14 17 -12 25 5 28 28 4 28 -12 0 -21 -6 -21 -16z"/>
 <path d="M1948 493 c7 -3 16 -2 19 1 4 3 -2 6 -13 5 -11 0 -14 -3 -6 -6z"/>
 <path d="M950 460 c0 -5 7 -10 15 -10 8 0 15 5 15 10 0 6 -7 10 -15 10 -8 0 -15 -4 -15 -10z"/>
 <path d="M1711 434 c0 -11 3 -14 6 -6 3 7 2 16 -1 19 -3 4 -6 -2 -5 -13z"/>
 <path d="M1240 430 c0 -5 7 -10 15 -10 8 0 15 5 15 10 0 6 -7 10 -15 10 -8 0 -15 -4 -15 -10z"/>
 <path d="M1430 430 c0 -5 9 -10 20 -10 11 0 20 5 20 10 0 6 -9 10 -20 10 -11 0 -20 -4 -20 -10z"/>
 <path d="M1650 430 c0 -5 5 -10 10 -10 6 0 10 5 10 10 0 6 -4 10 -10 10 -5 0 -10 -4 -10 -10z"/>
 <path d="M1290 420 c0 -5 5 -10 10 -10 6 0 10 5 10 10 0 6 -4 10 -10 10 -5 0 -10 -4 -10 -10z"/>
 <path d="M1668 283 c7 -3 16 -2 19 1 4 3 -2 6 -13 5 -11 0 -14 -3 -6 -6z"/>
 </g>

</svg>